<svg xmlns="http://www.w3.org/2000/svg" viewBox="0 0 512 512"><title>Artboard 150</title><g id="Toy_Robot" data-name="Toy Robot"><rect x="128" y="42.66667" width="21.33333" height="106.66667" style="fill:#c9c9d3"/><rect x="341.33333" y="42.66667" width="21.33333" height="106.66667" style="fill:#c9c9d3"/><path d="M341.33331,128h21.33338A21.33331,21.33331,0,0,1,384,149.33331v21.33335a0,0,0,0,1,0,0H320a0,0,0,0,1,0,0V149.33331A21.33331,21.33331,0,0,1,341.33331,128Z" style="fill:#5b5c7a"/><path d="M128,128h21.33333a21.33333,21.33333,0,0,1,21.33333,21.33333v21.33333a0,0,0,0,1,0,0h-64a0,0,0,0,1,0,0V149.33333A21.33333,21.33333,0,0,1,128,128Z" style="fill:#7b7c94"/><path d="M128,128h0a21.33331,21.33331,0,0,1,21.33331,21.33331v21.33335a0,0,0,0,1,0,0H106.66667a0,0,0,0,1,0,0V149.33331A21.33331,21.33331,0,0,1,128,128Z" style="fill:#8e8fa3"/><path d="M341.33331,128h0a21.33331,21.33331,0,0,1,21.33331,21.33331v21.33335a0,0,0,0,1,0,0H320a0,0,0,0,1,0,0V149.33331A21.33331,21.33331,0,0,1,341.33331,128Z" style="fill:#7b7c94"/><path d="M106.66667,149.33333H405.33333a85.33333,85.33333,0,0,1,85.33333,85.33333v192A42.66667,42.66667,0,0,1,448,469.33333H64a42.66667,42.66667,0,0,1-42.66667-42.66667v-192a85.33333,85.33333,0,0,1,85.33333-85.33333Z" style="fill:#8e8fa3"/><path d="M448,469.33333H341.33333V426.66667H448v-192A42.71555,42.71555,0,0,0,405.33333,192h-64V149.33333h64a85.42442,85.42442,0,0,1,85.33334,85.33334v192A42.71555,42.71555,0,0,1,448,469.33333Z" style="fill:#7b7c94"/><path d="M256,149.33333H106.66667a85.33334,85.33334,0,0,0-85.33334,85.33334v192A42.66666,42.66666,0,0,0,64,469.33333H298.66667a42.66665,42.66665,0,0,0,42.66666-42.66666v-192A85.33333,85.33333,0,0,0,256,149.33333Z" style="fill:#c9c9d3"/><path d="M298.66667,469.33333H256V426.66667h42.66667v-192A42.71555,42.71555,0,0,0,256,192V149.33333a85.42442,85.42442,0,0,1,85.33333,85.33334v192A42.71554,42.71554,0,0,1,298.66667,469.33333Z" style="fill:#a5a5b6"/><path d="M426.66667,383.97917a85.31251,85.31251,0,0,1-60.34375-145.64584l15.08333,15.08334a64.07112,64.07112,0,0,0,0,90.5c24.14583,24.125,66.375,24.125,90.52083,0L487.01042,359A84.73355,84.73355,0,0,1,426.66667,383.97917Z" style="fill:#7b7c94"/><circle cx="426.66667" cy="298.66667" r="64" style="fill:#c9c9d3"/><path d="M426.67708,362.64583h-.02083a63.99315,63.99315,0,0,1-45.23958-109.22916l30.16666,30.16666a21.31252,21.31252,0,0,0,15.08334,36.39584h.01041a21.10933,21.10933,0,0,0,15.0625-6.22917l30.1875,30.16667A63.53241,63.53241,0,0,1,426.67708,362.64583Z" style="fill:#a5a5b6"/><ellipse cx="458.66667" cy="288" rx="25.28087" ry="37.52946" transform="translate(-69.3064 408.67956) rotate(-45)" style="fill:#ebebee"/><path d="M106.67708,362.64583h-.01041a63.53241,63.53241,0,0,1-45.25-18.72916L76.5,328.83333a42.388,42.388,0,0,0,30.16667,12.47917h.01041A42.66212,42.66212,0,0,0,136.83333,268.5l15.08334-15.08333a63.97916,63.97916,0,0,1-45.23959,109.22916Z" style="fill:#a5a5b6"/><circle cx="106.66667" cy="298.66667" r="42.66667" style="fill:#009fc2"/><path d="M46.32292,359a85.33159,85.33159,0,0,1,120.6875-120.66667l-15.08334,15.08334c-24.14583-24.125-66.375-24.125-90.52083,0a64.07112,64.07112,0,0,0,0,90.5Z" style="fill:#dddde3"/><path d="M195.65625,359a85.33159,85.33159,0,0,1,120.6875-120.66667l-15.08333,15.08334c-24.14584-24.125-66.375-24.125-90.52084,0a64.07114,64.07114,0,0,0,0,90.5Z" style="fill:#dddde3"/><ellipse cx="85.33333" cy="277.33333" rx="26.97886" ry="13.48943" transform="translate(-171.11073 141.56883) rotate(-45)" style="fill:#7cd5e5"/><path d="M106.66667,341.3125A42.54066,42.54066,0,0,1,76.5,328.83333L91.58333,313.75A21.33106,21.33106,0,0,0,121.75,283.58333L136.83333,268.5a42.64584,42.64584,0,0,1-30.16666,72.8125Z" style="fill:#0c87b6"/><path d="M256.01042,362.64583H256a63.53243,63.53243,0,0,1-45.25-18.72916l15.08333-15.08334A42.388,42.388,0,0,0,256,341.3125h.01042A42.66212,42.66212,0,0,0,286.16667,268.5L301.25,253.41667a63.97916,63.97916,0,0,1-45.23958,109.22916Z" style="fill:#a5a5b6"/><circle cx="256" cy="298.66667" r="42.66667" style="fill:#009fc2"/><path d="M256,341.3125a42.54067,42.54067,0,0,1-30.16667-12.47917L240.91667,313.75a21.33105,21.33105,0,0,0,30.16666-30.16667L286.16667,268.5A42.64584,42.64584,0,0,1,256,341.3125Z" style="fill:#0c87b6"/><rect x="384" y="192" width="64" height="21.33333" style="fill:#4a4b6c"/><rect x="384" y="170.66667" width="64" height="21.33333" style="fill:#a5a5b6"/><rect x="384" y="384" width="64" height="21.33333" style="fill:#a5a5b6"/><rect x="384" y="405.33333" width="64" height="21.33333" style="fill:#4a4b6c"/><rect x="128" y="384" width="106.66667" height="42.66667" style="fill:#8e8fa3"/><rect x="128" y="384" width="42.66667" height="42.66667" style="fill:#6b6c87"/><rect x="149.33333" y="192" width="21.33333" height="42.66667" style="fill:#6b6c87"/><rect x="192" y="192" width="21.33333" height="42.66667" style="fill:#6b6c87"/><rect x="170.66667" y="192" width="21.33333" height="42.66667" style="fill:#dddde3"/><rect x="213.33333" y="192" width="21.33333" height="42.66667" style="fill:#dddde3"/><circle cx="138.66667" cy="74.66667" r="32" style="fill:#f9578f"/><path d="M128,96a31.62627,31.62627,0,0,0,1.49479,9.17188,31.62661,31.62661,0,0,0,9.17188,1.49479,31.99993,31.99993,0,0,0,32-32,31.62661,31.62661,0,0,0-1.49479-9.17188A31.62627,31.62627,0,0,0,160,64,31.99991,31.99991,0,0,0,128,96Z" style="fill:#f73478"/><polygon points="245.333 111.083 202.667 68.417 185.75 85.333 138.667 85.333 138.667 64 176.917 64 202.667 38.25 245.333 80.917 288 38.25 313.75 64 330.667 64 330.667 85.333 304.917 85.333 288 68.417 245.333 111.083" style="fill:#f9c450"/><circle cx="352" cy="74.66667" r="32" style="fill:#f9578f"/><path d="M320,74.66667a31.62626,31.62626,0,0,0,1.49479,9.17187,31.62627,31.62627,0,0,0,9.17188,1.49479,31.99992,31.99992,0,0,0,32-32,31.6266,31.6266,0,0,0-1.49479-9.17187A31.62627,31.62627,0,0,0,352,42.66667,31.99991,31.99991,0,0,0,320,74.66667Z" style="fill:#fb91b5"/><ellipse cx="234.66667" cy="277.33333" rx="26.97886" ry="13.48943" transform="translate(-127.37201 247.16344) rotate(-45)" style="fill:#7cd5e5"/><rect x="234.66667" y="384" width="21.33333" height="42.66667" style="fill:#dddde3"/><path d="M85.33333,448a42.71555,42.71555,0,0,1-42.66666-42.66667v-32H64v32a21.35443,21.35443,0,0,0,21.33333,21.33334Z" style="fill:#dddde3"/></g></svg>